<svg xmlns="http://www.w3.org/2000/svg" viewBox="0 0 22.11 22.16"><defs><style>.cls-1{fill:#fff;}</style></defs><title>Recurso 2</title><g id="Capa_2" data-name="Capa 2"><g id="Capa_1-2" data-name="Capa 1"><path class="cls-1" d="M19.08,5.8H13l-3,5.26,3,5.26h6.07l3-5.26Zm-.52,9.61h-5L11,11.06l2.51-4.35h5l2.51,4.35Z"/><path class="cls-1" d="M9.11,10.51l3-5.26L9.11,0H3L0,5.26l3,5.26ZM3.56.91h5l2.51,4.35L8.58,9.61h-5L1,5.26Z"/><path class="cls-1" d="M3,11.65,0,16.91l3,5.26H9.11l3-5.26-3-5.26Zm5.55,9.61h-5L1,16.91l2.51-4.35h5l2.51,4.35Z"/></g></g></svg>