<svg xmlns="http://www.w3.org/2000/svg" viewBox="0 0 16.04 20.12"><defs><style>.cls-1{fill:#fff;}</style></defs><title>Recurso 1</title><g id="Capa_2" data-name="Capa 2"><g id="Capa_1-2" data-name="Capa 1"><path class="cls-1" d="M8.39,20a15,15,0,0,0,4.06-2.59,11.18,11.18,0,0,0,2.92-3.88A8.1,8.1,0,0,0,16,11c0-.44,0-.89,0-1.34V4.54c0-.42,0-.85,0-1.28h0a.74.74,0,0,0-.53-.69L13,1.69,9.1.33C8.81.23,8.52.11,8.22,0a1.66,1.66,0,0,0-.95.19L3.52,1.52l-2.94,1,0,0A.74.74,0,0,0,0,3.24V7.69c0,.93,0,1.87,0,2.8a7.4,7.4,0,0,0,.41,2.4A10.77,10.77,0,0,0,3.16,17a15.13,15.13,0,0,0,4,2.77l.5.22a.78.78,0,0,0,.55.07.72.72,0,0,0,.5-.88.68.68,0,0,0-.33-.43A14.54,14.54,0,0,1,5.29,17l0,0,0,0-.18-.15-.36-.3c-.24-.21-.47-.42-.69-.64s-.43-.45-.64-.69l-.28-.35,0-.06.06.07L3,14.75l-.14-.18a9.11,9.11,0,0,1-1-1.77L2,13a7.26,7.26,0,0,1-.5-1.8l0,.19A10.18,10.18,0,0,1,1.44,10V3.26l-.53.69,2.47-.86L7.32,1.73l.9-.31H7.83l2.47.86,3.93,1.36.9.31-.53-.69V9.81a12,12,0,0,1-.06,1.55l0-.19a7.26,7.26,0,0,1-.5,1.8l.07-.17a9,9,0,0,1-.86,1.57l-.27.37-.06.08.06-.07,0,.06-.15.18c-.2.24-.41.47-.62.7a13.59,13.59,0,0,1-1.38,1.25.47.47,0,0,0-.08.07l.07-.06,0,0-.2.15-.38.27c-.25.17-.5.33-.76.49a14.22,14.22,0,0,1-1.76.9.73.73,0,0,0-.33.43.72.72,0,0,0,.5.88A.94.94,0,0,0,8.39,20Z"/><path class="cls-1" d="M3.79,9.65,6.11,12l.33.33a.73.73,0,0,0,1,0l1.63-1.63,2.59-2.59.6-.6a.72.72,0,0,0-1-1L9.62,8.1,7,10.68l-.6.6h1L5.14,9,4.8,8.63a.72.72,0,0,0-1,1Z"/></g></g></svg>