<svg xmlns="http://www.w3.org/2000/svg" viewBox="0 0 13.16 16.38"><defs><style>.cls-1{fill:#fff;}</style></defs><title>Recurso 3</title><g id="Capa_2" data-name="Capa 2"><g id="Capa_1-2" data-name="Capa 1"><path class="cls-1" d="M12.51,14.76a.67.67,0,0,0-.31.07,2.15,2.15,0,0,1-.86.19,2.12,2.12,0,0,1-1.24-.4,1.91,1.91,0,0,0-2.27,0A2.12,2.12,0,0,1,6.6,15h0a2.12,2.12,0,0,1-1.24-.4,1.91,1.91,0,0,0-1.13-.38,1.8,1.8,0,0,0-1.13.38,2.12,2.12,0,0,1-1.24.4A1.9,1.9,0,0,1,1,14.83a.59.59,0,0,0-.31-.07.69.69,0,0,0-.69.69.64.64,0,0,0,0,.17.66.66,0,0,0,.38.45,3,3,0,0,0,1.44.31,3.3,3.3,0,0,0,2-.62c.22-.14.22-.15.38-.15s.17,0,.4.15a3.25,3.25,0,0,0,2,.62,3.25,3.25,0,0,0,2-.62c.22-.14.22-.15.38-.15s.17,0,.4.15a3.47,3.47,0,0,0,3.44.31.69.69,0,0,0,.33-.91s0-.05,0-.07A.6.6,0,0,0,12.51,14.76Z"/><path class="cls-1" d="M13.08,12.25a.69.69,0,0,0-.57-.31.67.67,0,0,0-.31.07,2.15,2.15,0,0,1-.86.19,2.12,2.12,0,0,1-1.24-.4,1.91,1.91,0,0,0-2.27,0,2,2,0,0,1-1.24.41h0a2.12,2.12,0,0,1-1.24-.4,1.8,1.8,0,0,0-1.13-.38,1.8,1.8,0,0,0-1.13.38,1.9,1.9,0,0,1-1.24.4A1.9,1.9,0,0,1,1,12,.59.59,0,0,0,.69,12a.69.69,0,0,0-.69.69.64.64,0,0,0,0,.17.72.72,0,0,0,.36.45,3,3,0,0,0,1.46.31,3.25,3.25,0,0,0,2-.62c.22-.14.22-.15.38-.15s.17,0,.4.15a3.25,3.25,0,0,0,2,.62,3.16,3.16,0,0,0,2-.64c.22-.14.22-.15.38-.15s.17,0,.4.15a3.47,3.47,0,0,0,3.44.31.7.7,0,0,0,.33-.91S13.09,12.29,13.08,12.25Z"/><path class="cls-1" d="M9.85,10.45a.69.69,0,0,0,.69-.69h0V4.19a4.25,4.25,0,0,1,1.24-3,.68.68,0,0,0,0-1,.68.68,0,0,0-1,0A5.82,5.82,0,0,0,9.47,2.27H4.83a4.08,4.08,0,0,1,.79-1.08.68.68,0,0,0,0-1,.68.68,0,0,0-1,0A5.59,5.59,0,0,0,3,4.19V9.76a.69.69,0,0,0,1.37,0h0V8.92H9.12v.84A.74.74,0,0,0,9.85,10.45ZM4.4,4.19a4.63,4.63,0,0,1,.05-.69H9.19a4.63,4.63,0,0,0-.05.69V5H4.4Zm0,3.51V6.2H9.16V7.7Z"/></g></g></svg>