<svg xmlns="http://www.w3.org/2000/svg" viewBox="0 0 22.23 14.05"><defs><style>.cls-1{fill:#fff;}</style></defs><title>Recurso 5</title><g id="Capa_2" data-name="Capa 2"><g id="Capa_1-2" data-name="Capa 1"><polygon class="cls-1" points="2.96 4.76 4.45 4.76 4.45 3.68 17.82 3.68 17.82 10.33 16.86 10.33 16.86 11.45 19.31 11.45 19.31 2.56 2.96 2.56 2.96 4.76"/><polygon class="cls-1" points="5.89 0 5.89 2.2 7.38 2.2 7.38 1.12 20.75 1.12 20.75 7.76 19.79 7.76 19.79 8.89 22.23 8.89 22.23 0 5.89 0"/><path class="cls-1" d="M8.17,11.33A1.72,1.72,0,1,0,6.45,9.61,1.72,1.72,0,0,0,8.17,11.33Zm0-3.22a1.5,1.5,0,1,1-1.5,1.5A1.51,1.51,0,0,1,8.17,8.1Z"/><path class="cls-1" d="M8.05,10.4v.22h.24V10.4a.56.56,0,0,0,.28-.12.44.44,0,0,0,.16-.35.39.39,0,0,0-.13-.29.86.86,0,0,0-.38-.18A.58.58,0,0,1,8,9.36a.19.19,0,0,1-.07-.15A.21.21,0,0,1,8,9,.33.33,0,0,1,8.19,9a.28.28,0,0,1,.2.06.29.29,0,0,1,.09.19v0h.23v0a.43.43,0,0,0-.15-.32.52.52,0,0,0-.27-.11V8.59H8.05v.19a.51.51,0,0,0-.23.11.38.38,0,0,0-.15.31.37.37,0,0,0,.12.28.72.72,0,0,0,.34.16.83.83,0,0,1,.29.12.22.22,0,0,1,.08.17.26.26,0,0,1-.08.21.35.35,0,0,1-.24.07.34.34,0,0,1-.24-.07.27.27,0,0,1-.08-.21v0H7.62V10a.39.39,0,0,0,.15.3A.61.61,0,0,0,8.05,10.4Z"/><path class="cls-1" d="M4,11.89h8.13c0-1.44,1.24-1.26,1.24-1.26V8.55c-1.44,0-1.24-1.23-1.24-1.23H4.32s.1,1.16-1.39,1.16V10.7A1.12,1.12,0,0,1,4,11.89ZM8.17,7.74A1.87,1.87,0,1,1,6.3,9.61,1.87,1.87,0,0,1,8.17,7.74Z"/><path class="cls-1" d="M0,5.17v8.89H16.34V5.17Zm14.86,7.77H1.49V6.29H14.86Z"/></g></g></svg>