<svg xmlns="http://www.w3.org/2000/svg" viewBox="0 0 18.33 20.2"><defs><style>.cls-1{fill:#fff;}</style></defs><title>Recurso 4</title><g id="Capa_2" data-name="Capa 2"><g id="Capa_1-2" data-name="Capa 1"><path class="cls-1" d="M3.85,8.73a7.26,7.26,0,0,0,2.66,4.33,2.12,2.12,0,0,1,.85,1.67v.06a.68.68,0,0,0,0,.16V17.6a.63.63,0,0,0,.63.63h.74v1.34a.63.63,0,0,0,.63.63h3.25a.63.63,0,0,0,.63-.63V18.23H14a.63.63,0,0,0,.63-.63V15a.68.68,0,0,0,0-.16v-.07a2.07,2.07,0,0,1,.81-1.63A7.31,7.31,0,0,0,10.19,0,7.17,7.17,0,0,0,7.33,1,19.11,19.11,0,0,0,.57.53.63.63,0,0,0,0,1.29C.08,1.54,1.25,6.48,3.85,8.73ZM12,18.94H10v-.71h2Zm1.37-2H8.65V15.42h4.73ZM10.33,1.3a6,6,0,0,1,4.38,10.8,3.33,3.33,0,0,0-1.24,2.06H8.57a3.42,3.42,0,0,0-1.26-2.09A6,6,0,0,1,5.47,9.66a3.79,3.79,0,0,0,1.13.18A5.18,5.18,0,0,0,9.76,8.58l.11-.1A23.5,23.5,0,0,1,12,11.74a.63.63,0,0,0,.56.32.61.61,0,0,0,.32-.08.63.63,0,0,0,.25-.86,24.91,24.91,0,0,0-2.49-3.76s0-.06,0-.1a4.5,4.5,0,0,0-.48-4.52A4.71,4.71,0,0,0,8.85,1.67,5.84,5.84,0,0,1,10.33,1.3ZM9.21,3.56a3,3,0,0,1,.44,2.71C6.59,3,4,2.58,3.8,2.56a.63.63,0,0,0-.19,1.25s2.54.46,5.44,3.69L9,7.58a3.33,3.33,0,0,1-3.22.86C3.54,7.65,2,3.81,1.44,1.72,3.61,1.58,7.73,1.73,9.21,3.56Z"/></g></g></svg>